<?xml version="1.0" encoding="UTF-8" standalone="no"?>
<!DOCTYPE svg PUBLIC "-//W3C//DTD SVG 1.1//EN" "http://www.w3.org/Graphics/SVG/1.1/DTD/svg11.dtd">
<svg width="100%" height="100%" viewBox="0 0 28 28" version="1.1" xmlns="http://www.w3.org/2000/svg" xmlns:xlink="http://www.w3.org/1999/xlink" xml:space="preserve" xmlns:serif="http://www.serif.com/" style="fill-rule:evenodd;clip-rule:evenodd;stroke-linejoin:round;stroke-miterlimit:2;">
    <path d="M7,9.728C7,9.326 7.326,9 7.728,9L13.272,9C13.674,9 14,9.326 14,9.728L14,9.772C14,10.174 13.674,10.5 13.272,10.5L7.728,10.5C7.326,10.5 7,10.174 7,9.772L7,9.728ZM7,13.728C7,13.326 7.326,13 7.728,13L18.272,13C18.674,13 19,13.326 19,13.728L19,13.772C19,14.174 18.674,14.5 18.272,14.5L7.728,14.5C7.326,14.5 7,14.174 7,13.772L7,13.728ZM7.728,17C7.326,17 7,17.326 7,17.728L7,17.772C7,18.174 7.326,18.5 7.728,18.5L15.272,18.5C15.674,18.5 16,18.174 16,17.772L16,17.728C16,17.326 15.674,17 15.272,17L7.728,17ZM2.004,7.75C2.004,5.679 3.683,4 5.754,4L22.251,4C24.322,4 26.001,5.679 26.001,7.75L26.001,13.261C25.524,13.058 25.009,12.974 24.501,13.007L24.501,7.75C24.501,6.507 23.493,5.5 22.251,5.5L5.754,5.5C4.511,5.5 3.504,6.507 3.504,7.75L3.504,20.25C3.504,21.493 4.511,22.5 5.754,22.5L13.982,22.5C13.773,22.831 13.617,23.194 13.521,23.577L13.415,24L5.754,24C3.683,24 2.004,22.321 2.004,20.25L2.004,7.75ZM23.1,14.669L15.197,22.572C14.853,22.916 14.609,23.347 14.491,23.819L14.033,25.65C13.834,26.446 14.556,27.167 15.352,26.968L17.182,26.511C17.655,26.393 18.086,26.148 18.43,25.804L26.332,17.902C27.225,17.009 27.225,15.562 26.332,14.669C25.44,13.777 23.993,13.777 23.1,14.669Z" style="fill:rgb(33,33,33);fill-rule:nonzero;"/>
</svg>
